<svg width="28" height="28" viewBox="0 0 28 28" fill="none" xmlns="http://www.w3.org/2000/svg">
<path d="M4.66667 19.8333C4.025 19.8333 3.5 20.3583 3.5 21C3.5 21.6417 4.025 22.1667 4.66667 22.1667H23.3333C23.975 22.1667 24.5 21.6417 24.5 21C24.5 20.3583 23.975 19.8333 23.3333 19.8333H22.1667V13.9417C23.4967 13.6733 24.5 12.495 24.5 11.0833V8.21333C24.5 6.99999 23.7417 5.90333 22.6217 5.48333L15.0267 2.51999C14.3617 2.27499 13.6383 2.27499 12.9617 2.51999L5.39 5.48333C4.25833 5.90333 3.5 6.99999 3.5 8.21333V11.0833C3.5 12.495 4.50333 13.6733 5.83333 13.9417V19.8333H4.66667ZM15.1667 14V19.8333H12.8333V14H15.1667ZM17.5 19.8333V14H19.8333V19.8333H17.5ZM14 6.38166C14.9683 6.38166 15.75 7.16333 15.75 8.13166C15.75 9.09999 14.9683 9.88166 14 9.88166C13.0317 9.88166 12.25 9.09999 12.25 8.13166C12.25 7.16333 13.0317 6.38166 14 6.38166ZM8.16667 14H10.5V19.8333H8.16667V14Z" fill="#A0ABBF"/>
<path d="M24.4997 23.3333H3.49967C2.85801 23.3333 2.33301 23.8583 2.33301 24.5C2.33301 25.1416 2.85801 25.6666 3.49967 25.6666H24.4997C25.1413 25.6666 25.6663 25.1416 25.6663 24.5C25.6663 23.8583 25.1413 23.3333 24.4997 23.3333Z" fill="#A0ABBF"/>
</svg>
