<svg width="28" height="28" viewBox="0 0 28 28" fill="none" xmlns="http://www.w3.org/2000/svg">
<path d="M23.917 11.8883H20.5453C17.7803 11.8883 15.5287 9.63668 15.5287 6.87168V3.50001C15.5287 2.85834 15.0037 2.33334 14.362 2.33334H9.41533C5.82199 2.33334 2.91699 4.66668 2.91699 8.83168V19.1683C2.91699 23.3333 5.82199 25.6667 9.41533 25.6667H18.5853C22.1787 25.6667 25.0837 23.3333 25.0837 19.1683V13.055C25.0837 12.4133 24.5587 11.8883 23.917 11.8883Z" fill="#A0ABBF"/>
<path d="M18.4336 2.57835C17.9553 2.10001 17.127 2.42668 17.127 3.09168V7.16335C17.127 8.86668 18.5736 10.2783 20.3353 10.2783C21.4436 10.29 22.9836 10.29 24.302 10.29C24.967 10.29 25.317 9.50835 24.8503 9.04168C23.1703 7.35001 20.1603 4.30501 18.4336 2.57835Z" fill="#A0ABBF"/>
</svg>
