<svg width="28" height="28" viewBox="0 0 28 28" fill="none" xmlns="http://www.w3.org/2000/svg">
<path fill-rule="evenodd" clip-rule="evenodd" d="M26.4531 12.497C26.6898 12.3926 26.8907 12.221 27.0308 12.0035C27.171 11.7861 27.2442 11.5323 27.2416 11.2736C27.2389 11.0149 27.1604 10.7627 27.0158 10.5482C26.8712 10.3337 26.6668 10.1663 26.428 10.0668L15.0958 4.90512C14.7513 4.74798 14.377 4.66666 13.9984 4.66666C13.6197 4.66666 13.2455 4.74798 12.901 4.90512L1.57006 10.0615C1.33467 10.1646 1.13443 10.3341 0.993817 10.5492C0.853205 10.7643 0.77832 11.0157 0.77832 11.2726C0.77832 11.5296 0.853205 11.781 0.993817 11.9961C1.13443 12.2112 1.33467 12.3807 1.57006 12.4837L12.901 17.6508C13.2455 17.8079 13.6197 17.8892 13.9984 17.8892C14.377 17.8892 14.7513 17.8079 15.0958 17.6508L24.2386 13.5019V19.2109C24.2386 19.6405 24.5868 19.9887 25.0163 19.9887C25.4459 19.9887 25.7941 19.6405 25.7941 19.2109V12.796L26.4531 12.497ZM12.901 18.9729L6.17436 15.9055H6.06538V20.5331C6.06538 21.5851 6.90117 22.5939 8.38889 23.3378C9.87661 24.0817 11.8944 24.4996 13.9983 24.4996C16.1023 24.4996 18.1201 24.0817 19.6078 23.3378C21.0955 22.5939 21.9313 21.5851 21.9313 20.5331V15.9055H21.8554L15.0958 18.9729C14.7513 19.1301 14.377 19.2114 13.9984 19.2114C13.6197 19.2114 13.2455 19.1301 12.901 18.9729Z" fill="#A0ABBF"/>
</svg>
