<svg width="21" height="21" viewBox="0 0 21 21" fill="none" xmlns="http://www.w3.org/2000/svg">
<path d="M14.7695 8.75C12.477 8.75 10.6133 10.6138 10.6133 12.9062C10.6133 13.685 10.832 14.42 11.217 15.05C11.9345 16.2575 13.2558 17.0625 14.7695 17.0625C16.2833 17.0625 17.6045 16.2488 18.322 15.05C18.707 14.4288 18.9258 13.685 18.9258 12.9062C18.9258 10.6138 17.0708 8.75 14.7695 8.75ZM16.327 13.545H15.4258V14.4812C15.4258 14.84 15.1283 15.1375 14.7695 15.1375C14.4108 15.1375 14.1133 14.84 14.1133 14.4812V13.545H13.2208C12.862 13.545 12.5645 13.2475 12.5645 12.8887C12.5645 12.53 12.862 12.2325 13.2208 12.2325H14.1133V11.375C14.1133 11.0162 14.4108 10.7188 14.7695 10.7188C15.1283 10.7188 15.4258 11.0162 15.4258 11.375V12.2325H16.327C16.6858 12.2325 16.9833 12.53 16.9833 12.8887C16.9833 13.2475 16.6858 13.545 16.327 13.545Z" fill="#006FEE"/>
<path d="M18.0072 3.5175V5.46C18.0072 6.16875 17.5697 7.0525 17.1322 7.49875L16.9747 7.63875C16.8522 7.7525 16.6684 7.77875 16.5109 7.72625C16.3359 7.665 16.1609 7.62125 15.9859 7.5775C15.6009 7.48125 15.1897 7.4375 14.7697 7.4375C11.7509 7.4375 9.30094 9.8875 9.30094 12.9062C9.30094 13.9038 9.57219 14.8837 10.0884 15.7237C10.5259 16.4587 11.1384 17.0712 11.8034 17.4825C12.0047 17.6137 12.0834 17.8937 11.9084 18.0512C11.8472 18.1037 11.7859 18.1475 11.7247 18.1912L10.4997 18.9875C9.36219 19.6963 7.79594 18.9 7.79594 17.4825V12.8013C7.79594 12.18 7.44594 11.3837 7.09594 10.9462L3.77969 7.41125C3.34219 6.965 2.99219 6.16875 2.99219 5.64375V3.605C2.99219 2.54625 3.77969 1.75 4.73344 1.75H16.2659C17.2197 1.75 18.0072 2.54625 18.0072 3.5175Z" fill="#006FEE"/>
</svg>
