<svg width="28" height="28" viewBox="0 0 28 28" fill="none" xmlns="http://www.w3.org/2000/svg">
<path d="M15.166 17.185H12.8327C12.191 17.185 11.666 17.71 11.666 18.3517V25.3517H16.3327V18.3517C16.3327 17.71 15.8077 17.185 15.166 17.185Z" fill="#006FEE"/>
<path d="M24.313 9.73L16.1463 3.38334C14.8863 2.39167 13.113 2.39167 11.853 3.38334L3.68634 9.73C2.82301 10.4067 2.33301 11.41 2.33301 12.495V21.8517C2.33301 23.7767 3.90801 25.3517 5.83301 25.3517H9.33301V18.3517C9.33301 16.4267 10.908 14.8517 12.833 14.8517H15.1663C17.0913 14.8517 18.6663 16.4267 18.6663 18.3517V25.3517H22.1663C24.0913 25.3517 25.6663 23.7767 25.6663 21.8517V12.495C25.6663 11.41 25.1763 10.4067 24.313 9.73Z" fill="#006FEE"/>
</svg>
