<svg width="28" height="28" viewBox="0 0 28 28" fill="none" xmlns="http://www.w3.org/2000/svg">
<path d="M24.3834 11.4917L25.0717 23.03C25.095 23.345 24.9434 23.555 24.8617 23.6483C24.7684 23.7533 24.57 23.9167 24.2434 23.9167H21.0584L23.5784 11.4917H24.3834ZM25.6667 7L25.655 7.02333C25.6784 7.30333 25.655 7.595 25.585 7.88667L16.9867 23.6717C16.7067 24.85 15.6567 25.6667 14.4434 25.6667H24.2434C25.7484 25.6667 26.9384 24.395 26.8217 22.89L25.6667 7Z" fill="#006FEE"/>
<path d="M13.3589 2.61334C13.4756 2.14667 13.1839 1.66834 12.7173 1.55167C12.2506 1.44667 11.7723 1.72667 11.6556 2.19334L11.0723 4.60834H12.8689L13.3589 2.61334Z" fill="#006FEE"/>
<path d="M21.0584 2.57833C21.1634 2.1 20.86 1.645 20.3817 1.54C19.915 1.435 19.4484 1.73833 19.3434 2.21667L18.8184 4.63167H20.615L21.0584 2.57833Z" fill="#006FEE"/>
<path d="M25.4557 6.21835C25.0707 5.28501 24.1607 4.62001 23.0407 4.62001H20.6141L19.9607 7.64168C19.8674 8.05001 19.5057 8.33001 19.1091 8.33001C19.0507 8.33001 18.9807 8.33001 18.9224 8.30668C18.4557 8.20168 18.1524 7.73501 18.2457 7.26835L18.8174 4.60835H12.8674L12.1324 7.64168C12.0391 8.03835 11.6774 8.30668 11.2807 8.30668C11.2107 8.30668 11.1407 8.29501 11.0707 8.28335C10.6041 8.16668 10.3124 7.70001 10.4291 7.22168L11.0591 4.59668H8.69073C7.5474 4.59668 6.5324 5.34335 6.19406 6.44001L1.2824 22.2483C0.769063 23.94 2.0174 25.6667 3.77906 25.6667H19.1091C20.3224 25.6667 21.3724 24.85 21.6524 23.6717L25.5841 7.88668C25.6541 7.59501 25.6774 7.30335 25.6541 7.02335C25.6307 6.74335 25.5724 6.46335 25.4557 6.21835ZM17.1491 19.5417H7.81573C7.3374 19.5417 6.94073 19.145 6.94073 18.6667C6.94073 18.1883 7.3374 17.7917 7.81573 17.7917H17.1491C17.6274 17.7917 18.0241 18.1883 18.0241 18.6667C18.0241 19.145 17.6274 19.5417 17.1491 19.5417ZM18.3157 14.875H8.9824C8.50406 14.875 8.1074 14.4783 8.1074 14C8.1074 13.5217 8.50406 13.125 8.9824 13.125H18.3157C18.7941 13.125 19.1907 13.5217 19.1907 14C19.1907 14.4783 18.7941 14.875 18.3157 14.875Z" fill="#006FEE"/>
</svg>
