<svg width="36" height="36" viewBox="0 0 36 36" fill="none" xmlns="http://www.w3.org/2000/svg">
<path d="M9.77541 6.33609C15.2481 5.88797 20.7518 5.88797 26.2246 6.33609L28.8613 6.552C30.6166 6.69572 32.1199 7.68192 32.8988 9.09259C32.9985 9.27306 32.9238 9.49156 32.7402 9.59863L21.8005 15.9778C19.4542 17.3459 16.4958 17.3746 14.1201 16.0523L3.10735 9.92243C2.92942 9.82339 2.84775 9.61953 2.92794 9.44011C3.64054 7.84559 5.24262 6.70725 7.13871 6.552L9.77541 6.33609Z" fill="#A0ABBF"/>
<path d="M2.91898 12.6829C2.64668 12.5314 2.29924 12.6945 2.2675 12.9909C1.82451 17.128 1.93173 21.3043 2.58915 25.4225C2.93574 27.5935 4.81677 29.2579 7.13871 29.448L9.77541 29.6639C15.2481 30.112 20.7519 30.112 26.2246 29.6639L28.8613 29.448C31.1832 29.2579 33.0643 27.5935 33.4108 25.4225C34.0874 21.1843 34.1813 16.8846 33.6924 12.6293C33.6581 12.3308 33.3047 12.1707 33.0337 12.3287L23.1789 18.0753C20.0046 19.9263 16.002 19.9651 12.7878 18.1761L2.91898 12.6829Z" fill="#A0ABBF"/>
</svg>
