<svg width="36" height="36" viewBox="0 0 36 36" fill="none" xmlns="http://www.w3.org/2000/svg">
<path d="M31.9992 28.2793V24.2147C32.0157 23.5502 31.7869 22.9029 31.3564 22.3958C30.9259 21.8887 30.3236 21.5572 29.6642 21.4643C28.3608 21.2928 27.0811 20.9746 25.8494 20.5159C25.3635 20.3336 24.8355 20.2942 24.3278 20.4022C23.8201 20.5103 23.3541 20.7613 22.985 21.1256L21.2609 22.8463C17.8622 20.9176 15.0482 18.1091 13.1156 14.7171L14.8397 12.9964C15.2047 12.628 15.4562 12.163 15.5645 11.6563C15.6728 11.1496 15.6332 10.6226 15.4506 10.1377C14.991 8.90843 14.6722 7.63125 14.5003 6.3305C14.4081 5.67941 14.0818 5.084 13.5823 4.65525C13.0827 4.2265 12.444 3.99366 11.7852 4.00013H7.71255C7.33561 4.00049 6.96288 4.07917 6.61808 4.23117C6.27328 4.38316 5.96397 4.60515 5.70984 4.88299C5.45571 5.16083 5.26234 5.48843 5.14202 5.84495C5.02171 6.20146 4.97709 6.57907 5.01102 6.95373C5.45663 11.1416 6.88441 15.1658 9.17871 18.7004C11.263 21.974 14.0439 24.7494 17.324 26.8296C20.8496 29.1114 24.8623 30.536 29.0397 30.989C29.4162 31.023 29.7957 30.9781 30.1539 30.8572C30.5121 30.7363 30.841 30.5421 31.1196 30.287C31.3982 30.0319 31.6203 29.7216 31.7718 29.3758C31.9233 29.0301 32.0007 28.6566 31.9992 28.2793Z" fill="#A0ABBF"/>
<path d="M22 8.53459C23.3515 8.79827 24.5935 9.45922 25.5671 10.4329C26.5408 11.4065 27.2017 12.6485 27.4654 14M22 3C24.8078 3.31192 27.4261 4.5693 29.425 6.56567C31.4239 8.56204 32.6845 11.1788 33 13.9862" stroke="#A0ABBF" stroke-width="3" stroke-linecap="round" stroke-linejoin="round"/>
</svg>
