<svg width="36" height="36" viewBox="0 0 36 36" fill="none" xmlns="http://www.w3.org/2000/svg">
<path fill-rule="evenodd" clip-rule="evenodd" d="M18 6.00001C7.5 6.00001 1.5 18 1.5 18C1.5 18 7.5 30 18 30C28.5 30 34.5 18 34.5 18C34.5 18 28.5 6.00001 18 6.00001ZM15.0001 18C15.0001 16.3431 16.3432 15 18.0001 15C19.6569 15 21.0001 16.3431 21.0001 18C21.0001 19.6569 19.6569 21 18.0001 21C16.3432 21 15.0001 19.6569 15.0001 18ZM18.0001 12C14.6864 12 12.0001 14.6863 12.0001 18C12.0001 21.3137 14.6864 24 18.0001 24C21.3138 24 24.0001 21.3137 24.0001 18C24.0001 14.6863 21.3138 12 18.0001 12Z" fill="#A0ABBF"/>
</svg>
