<svg width="28" height="28" viewBox="0 0 28 28" fill="none" xmlns="http://www.w3.org/2000/svg">
<path d="M0.220414 7.33074C0.578301 7.221 1.75087 7.25373 2.72563 7.33074C3.85905 7.4203 5.46943 7.65997 5.58873 7.82458C5.91972 8.31722 8.39807 12.444 9.16761 13.3379C9.94596 14.2421 10.9301 12.5149 10.9301 10.6218C10.9301 9.29017 9.79391 7.52279 9.16761 7.65997C9.31076 6.47475 11.9143 6.50648 13.8201 6.67229C14.978 6.77303 16.385 7.57766 16.3254 8.15381V13.0099C16.9696 15.7754 21.1568 10.9605 21.1568 8.48304C21.1568 8.15381 21.0405 7.33074 22.4095 7.33074H27.062C28.8245 8.15381 26.6743 10.8425 24.9147 12.763C22.9821 14.6067 23.9305 15.973 23.9305 15.973L27.062 19.0183C29.6388 21.5204 26.2298 21.4052 24.9147 21.4052C22.702 21.4052 21.4878 20.7455 18.0879 18.441C17.2569 17.8777 16.3552 18.7988 16.3254 20.2529C16.4685 21.5698 15.3143 21.4052 13.8201 21.4052C6.54602 20.7455 3.68292 17.8648 0.220414 8.89457C-0.00173199 8.31906 -0.137474 7.44049 0.220414 7.33074Z" fill="#A0ABBF"/>
</svg>
