<svg width="17" height="17" viewBox="0 0 17 17" fill="none" xmlns="http://www.w3.org/2000/svg">
<path fill-rule="evenodd" clip-rule="evenodd" d="M15.4691 3.6545C15.7104 3.90324 15.8818 4.21125 15.9659 4.54742C16.1906 5.79316 16.2997 7.05701 16.2917 8.32284C16.2962 9.56974 16.1872 10.8145 15.9659 12.0416C15.8818 12.3778 15.7104 12.6858 15.4691 12.9345C15.2278 13.1832 14.9252 13.3639 14.5917 13.4583C13.3734 13.7841 8.50008 13.7841 8.50008 13.7841C8.50008 13.7841 3.62675 13.7841 2.40841 13.4583C2.08174 13.3689 1.78365 13.1967 1.54293 12.9585C1.30221 12.7203 1.12701 12.424 1.03425 12.0983C0.80954 10.8525 0.700465 9.58866 0.708413 8.32284C0.702205 7.06647 0.811273 5.81219 1.03425 4.57575C1.11839 4.23958 1.28975 3.93157 1.53103 3.68283C1.77231 3.43409 2.07496 3.25342 2.40841 3.15909C3.62675 2.83325 8.50008 2.83325 8.50008 2.83325C8.50008 2.83325 13.3734 2.83325 14.5917 3.13075C14.9252 3.22509 15.2278 3.40576 15.4691 3.6545ZM10.9797 8.32287L6.90674 10.6391V6.00662L10.9797 8.32287Z" fill="#CBC9D3"/>
</svg>
