<?xml version="1.0" encoding="utf-8"?><svg xmlns="http://www.w3.org/2000/svg" xmlns:xlink="http://www.w3.org/1999/xlink"><symbol viewBox="0 0 28 28" id="administration" xmlns="http://www.w3.org/2000/svg"><path d="M4.66667 19.8333C4.025 19.8333 3.5 20.3583 3.5 21C3.5 21.6417 4.025 22.1667 4.66667 22.1667H23.3333C23.975 22.1667 24.5 21.6417 24.5 21C24.5 20.3583 23.975 19.8333 23.3333 19.8333H22.1667V13.9417C23.4967 13.6733 24.5 12.495 24.5 11.0833V8.21333C24.5 6.99999 23.7417 5.90333 22.6217 5.48333L15.0267 2.51999C14.3617 2.27499 13.6383 2.27499 12.9617 2.51999L5.39 5.48333C4.25833 5.90333 3.5 6.99999 3.5 8.21333V11.0833C3.5 12.495 4.50333 13.6733 5.83333 13.9417V19.8333H4.66667ZM15.1667 14V19.8333H12.8333V14H15.1667ZM17.5 19.8333V14H19.8333V19.8333H17.5ZM14 6.38166C14.9683 6.38166 15.75 7.16333 15.75 8.13166C15.75 9.09999 14.9683 9.88166 14 9.88166C13.0317 9.88166 12.25 9.09999 12.25 8.13166C12.25 7.16333 13.0317 6.38166 14 6.38166ZM8.16667 14H10.5V19.8333H8.16667V14Z"/><path d="M24.4997 23.3333H3.49967C2.85801 23.3333 2.33301 23.8583 2.33301 24.5C2.33301 25.1416 2.85801 25.6666 3.49967 25.6666H24.4997C25.1413 25.6666 25.6663 25.1416 25.6663 24.5C25.6663 23.8583 25.1413 23.3333 24.4997 23.3333Z"/></symbol><symbol viewBox="0 0 8 13" id="arrow" xmlns="http://www.w3.org/2000/svg"><path d="M1.39941 12.1001L7.07776 6.39598L1.39941 0.691853" stroke-width="1.4" stroke-linecap="round" stroke-linejoin="round"/></symbol><symbol viewBox="0 0 25 25" id="arrow-menu-nav" xmlns="http://www.w3.org/2000/svg"><path d="M7.55176 10.5273L12.5745 15.5273L17.5972 10.5273" stroke-width="2" stroke-linecap="round" stroke-linejoin="round"/></symbol><symbol viewBox="0 0 19 20" id="arrow-right" xmlns="http://www.w3.org/2000/svg"><path d="M3.95801 10H15.0413" stroke-width="1.58333" stroke-linecap="round" stroke-linejoin="round"/><path d="M9.5 4.45837L15.0417 10L9.5 15.5417" stroke-width="1.58333" stroke-linecap="round" stroke-linejoin="round"/></symbol><symbol viewBox="0 0 36 22" id="burger-menu" xmlns="http://www.w3.org/2000/svg"><line x1="1.8" y1="2.2" x2="34.2" y2="2.2" stroke-width="3.6" stroke-linecap="round"/><line x1="1.8" y1="11.2" x2="28.2" y2="11.2" stroke-width="3.6" stroke-linecap="round"/><line x1="1.8" y1="20.2" x2="34.2" y2="20.2" stroke-width="3.6" stroke-linecap="round"/></symbol><symbol viewBox="0 0 28 28" id="docs" xmlns="http://www.w3.org/2000/svg"><path d="M23.917 11.8883H20.5453C17.7803 11.8883 15.5287 9.63668 15.5287 6.87168V3.50001C15.5287 2.85834 15.0037 2.33334 14.362 2.33334H9.41533C5.82199 2.33334 2.91699 4.66668 2.91699 8.83168V19.1683C2.91699 23.3333 5.82199 25.6667 9.41533 25.6667H18.5853C22.1787 25.6667 25.0837 23.3333 25.0837 19.1683V13.055C25.0837 12.4133 24.5587 11.8883 23.917 11.8883Z"/><path d="M18.4336 2.57835C17.9553 2.10001 17.127 2.42668 17.127 3.09168V7.16335C17.127 8.86668 18.5736 10.2783 20.3353 10.2783C21.4436 10.29 22.9836 10.29 24.302 10.29C24.967 10.29 25.317 9.50835 24.8503 9.04168C23.1703 7.35001 20.1603 4.30501 18.4336 2.57835Z"/></symbol><symbol viewBox="0 0 28 28" id="education" xmlns="http://www.w3.org/2000/svg"><path fill-rule="evenodd" clip-rule="evenodd" d="M26.4531 12.497C26.6898 12.3926 26.8907 12.221 27.0308 12.0035C27.171 11.7861 27.2442 11.5323 27.2416 11.2736C27.2389 11.0149 27.1604 10.7627 27.0158 10.5482C26.8712 10.3337 26.6668 10.1663 26.428 10.0668L15.0958 4.90512C14.7513 4.74798 14.377 4.66666 13.9984 4.66666C13.6197 4.66666 13.2455 4.74798 12.901 4.90512L1.57006 10.0615C1.33467 10.1646 1.13443 10.3341 0.993817 10.5492C0.853205 10.7643 0.77832 11.0157 0.77832 11.2726C0.77832 11.5296 0.853205 11.781 0.993817 11.9961C1.13443 12.2112 1.33467 12.3807 1.57006 12.4837L12.901 17.6508C13.2455 17.8079 13.6197 17.8892 13.9984 17.8892C14.377 17.8892 14.7513 17.8079 15.0958 17.6508L24.2386 13.5019V19.2109C24.2386 19.6405 24.5868 19.9887 25.0163 19.9887C25.4459 19.9887 25.7941 19.6405 25.7941 19.2109V12.796L26.4531 12.497ZM12.901 18.9729L6.17436 15.9055H6.06538V20.5331C6.06538 21.5851 6.90117 22.5939 8.38889 23.3378C9.87661 24.0817 11.8944 24.4996 13.9983 24.4996C16.1023 24.4996 18.1201 24.0817 19.6078 23.3378C21.0955 22.5939 21.9313 21.5851 21.9313 20.5331V15.9055H21.8554L15.0958 18.9729C14.7513 19.1301 14.377 19.2114 13.9984 19.2114C13.6197 19.2114 13.2455 19.1301 12.901 18.9729Z"/></symbol><symbol viewBox="0 0 21 21" id="filter" xmlns="http://www.w3.org/2000/svg"><path d="M14.7695 8.75C12.477 8.75 10.6133 10.6138 10.6133 12.9062C10.6133 13.685 10.832 14.42 11.217 15.05C11.9345 16.2575 13.2558 17.0625 14.7695 17.0625C16.2833 17.0625 17.6045 16.2488 18.322 15.05C18.707 14.4288 18.9258 13.685 18.9258 12.9062C18.9258 10.6138 17.0708 8.75 14.7695 8.75ZM16.327 13.545H15.4258V14.4812C15.4258 14.84 15.1283 15.1375 14.7695 15.1375C14.4108 15.1375 14.1133 14.84 14.1133 14.4812V13.545H13.2208C12.862 13.545 12.5645 13.2475 12.5645 12.8887C12.5645 12.53 12.862 12.2325 13.2208 12.2325H14.1133V11.375C14.1133 11.0162 14.4108 10.7188 14.7695 10.7188C15.1283 10.7188 15.4258 11.0162 15.4258 11.375V12.2325H16.327C16.6858 12.2325 16.9833 12.53 16.9833 12.8887C16.9833 13.2475 16.6858 13.545 16.327 13.545Z"/><path d="M18.0072 3.5175V5.46C18.0072 6.16875 17.5697 7.0525 17.1322 7.49875L16.9747 7.63875C16.8522 7.7525 16.6684 7.77875 16.5109 7.72625C16.3359 7.665 16.1609 7.62125 15.9859 7.5775C15.6009 7.48125 15.1897 7.4375 14.7697 7.4375C11.7509 7.4375 9.30094 9.8875 9.30094 12.9062C9.30094 13.9038 9.57219 14.8837 10.0884 15.7237C10.5259 16.4587 11.1384 17.0712 11.8034 17.4825C12.0047 17.6137 12.0834 17.8937 11.9084 18.0512C11.8472 18.1037 11.7859 18.1475 11.7247 18.1912L10.4997 18.9875C9.36219 19.6963 7.79594 18.9 7.79594 17.4825V12.8013C7.79594 12.18 7.44594 11.3837 7.09594 10.9462L3.77969 7.41125C3.34219 6.965 2.99219 6.16875 2.99219 5.64375V3.605C2.99219 2.54625 3.77969 1.75 4.73344 1.75H16.2659C17.2197 1.75 18.0072 2.54625 18.0072 3.5175Z"/></symbol><symbol viewBox="0 0 28 28" id="home-ico" xmlns="http://www.w3.org/2000/svg"><path d="M15.166 17.185H12.8327C12.191 17.185 11.666 17.71 11.666 18.3517V25.3517H16.3327V18.3517C16.3327 17.71 15.8077 17.185 15.166 17.185Z"/><path d="M24.313 9.73L16.1463 3.38334C14.8863 2.39167 13.113 2.39167 11.853 3.38334L3.68634 9.73C2.82301 10.4067 2.33301 11.41 2.33301 12.495V21.8517C2.33301 23.7767 3.90801 25.3517 5.83301 25.3517H9.33301V18.3517C9.33301 16.4267 10.908 14.8517 12.833 14.8517H15.1663C17.0913 14.8517 18.6663 16.4267 18.6663 18.3517V25.3517H22.1663C24.0913 25.3517 25.6663 23.7767 25.6663 21.8517V12.495C25.6663 11.41 25.1763 10.4067 24.313 9.73Z"/></symbol><symbol viewBox="0 0 28 28" id="intelligence-ico" xmlns="http://www.w3.org/2000/svg"><path d="M24.3834 11.4917L25.0717 23.03C25.095 23.345 24.9434 23.555 24.8617 23.6483C24.7684 23.7533 24.57 23.9167 24.2434 23.9167H21.0584L23.5784 11.4917H24.3834ZM25.6667 7L25.655 7.02333C25.6784 7.30333 25.655 7.595 25.585 7.88667L16.9867 23.6717C16.7067 24.85 15.6567 25.6667 14.4434 25.6667H24.2434C25.7484 25.6667 26.9384 24.395 26.8217 22.89L25.6667 7Z"/><path d="M13.3589 2.61334C13.4756 2.14667 13.1839 1.66834 12.7173 1.55167C12.2506 1.44667 11.7723 1.72667 11.6556 2.19334L11.0723 4.60834H12.8689L13.3589 2.61334Z"/><path d="M21.0584 2.57833C21.1634 2.1 20.86 1.645 20.3817 1.54C19.915 1.435 19.4484 1.73833 19.3434 2.21667L18.8184 4.63167H20.615L21.0584 2.57833Z"/><path d="M25.4557 6.21835C25.0707 5.28501 24.1607 4.62001 23.0407 4.62001H20.6141L19.9607 7.64168C19.8674 8.05001 19.5057 8.33001 19.1091 8.33001C19.0507 8.33001 18.9807 8.33001 18.9224 8.30668C18.4557 8.20168 18.1524 7.73501 18.2457 7.26835L18.8174 4.60835H12.8674L12.1324 7.64168C12.0391 8.03835 11.6774 8.30668 11.2807 8.30668C11.2107 8.30668 11.1407 8.29501 11.0707 8.28335C10.6041 8.16668 10.3124 7.70001 10.4291 7.22168L11.0591 4.59668H8.69073C7.5474 4.59668 6.5324 5.34335 6.19406 6.44001L1.2824 22.2483C0.769063 23.94 2.0174 25.6667 3.77906 25.6667H19.1091C20.3224 25.6667 21.3724 24.85 21.6524 23.6717L25.5841 7.88668C25.6541 7.59501 25.6774 7.30335 25.6541 7.02335C25.6307 6.74335 25.5724 6.46335 25.4557 6.21835ZM17.1491 19.5417H7.81573C7.3374 19.5417 6.94073 19.145 6.94073 18.6667C6.94073 18.1883 7.3374 17.7917 7.81573 17.7917H17.1491C17.6274 17.7917 18.0241 18.1883 18.0241 18.6667C18.0241 19.145 17.6274 19.5417 17.1491 19.5417ZM18.3157 14.875H8.9824C8.50406 14.875 8.1074 14.4783 8.1074 14C8.1074 13.5217 8.50406 13.125 8.9824 13.125H18.3157C18.7941 13.125 19.1907 13.5217 19.1907 14C19.1907 14.4783 18.7941 14.875 18.3157 14.875Z"/></symbol><symbol viewBox="0 0 36 36" id="mail" xmlns="http://www.w3.org/2000/svg"><path d="M9.77541 6.33609C15.2481 5.88797 20.7518 5.88797 26.2246 6.33609L28.8613 6.552C30.6166 6.69572 32.1199 7.68192 32.8988 9.09259C32.9985 9.27306 32.9238 9.49156 32.7402 9.59863L21.8005 15.9778C19.4542 17.3459 16.4958 17.3746 14.1201 16.0523L3.10735 9.92243C2.92942 9.82339 2.84775 9.61953 2.92794 9.44011C3.64054 7.84559 5.24262 6.70725 7.13871 6.552L9.77541 6.33609Z"/><path d="M2.91898 12.6829C2.64668 12.5314 2.29924 12.6945 2.2675 12.9909C1.82451 17.128 1.93173 21.3043 2.58915 25.4225C2.93574 27.5935 4.81677 29.2579 7.13871 29.448L9.77541 29.6639C15.2481 30.112 20.7519 30.112 26.2246 29.6639L28.8613 29.448C31.1832 29.2579 33.0643 27.5935 33.4108 25.4225C34.0874 21.1843 34.1813 16.8846 33.6924 12.6293C33.6581 12.3308 33.3047 12.1707 33.0337 12.3287L23.1789 18.0753C20.0046 19.9263 16.002 19.9651 12.7878 18.1761L2.91898 12.6829Z"/></symbol><symbol viewBox="0 0 36 36" id="phone-call" xmlns="http://www.w3.org/2000/svg"><path d="M31.9992 28.2793V24.2147C32.0157 23.5502 31.7869 22.9029 31.3564 22.3958C30.9259 21.8887 30.3236 21.5572 29.6642 21.4643C28.3608 21.2928 27.0811 20.9746 25.8494 20.5159C25.3635 20.3336 24.8355 20.2942 24.3278 20.4022C23.8201 20.5103 23.3541 20.7613 22.985 21.1256L21.2609 22.8463C17.8622 20.9176 15.0482 18.1091 13.1156 14.7171L14.8397 12.9964C15.2047 12.628 15.4562 12.163 15.5645 11.6563C15.6728 11.1496 15.6332 10.6226 15.4506 10.1377C14.991 8.90843 14.6722 7.63125 14.5003 6.3305C14.4081 5.67941 14.0818 5.084 13.5823 4.65525C13.0827 4.2265 12.444 3.99366 11.7852 4.00013H7.71255C7.33561 4.00049 6.96288 4.07917 6.61808 4.23117C6.27328 4.38316 5.96397 4.60515 5.70984 4.88299C5.45571 5.16083 5.26234 5.48843 5.14202 5.84495C5.02171 6.20146 4.97709 6.57907 5.01102 6.95373C5.45663 11.1416 6.88441 15.1658 9.17871 18.7004C11.263 21.974 14.0439 24.7494 17.324 26.8296C20.8496 29.1114 24.8623 30.536 29.0397 30.989C29.4162 31.023 29.7957 30.9781 30.1539 30.8572C30.5121 30.7363 30.841 30.5421 31.1196 30.287C31.3982 30.0319 31.6203 29.7216 31.7718 29.3758C31.9233 29.0301 32.0007 28.6566 31.9992 28.2793Z"/><path d="M22 8.53459C23.3515 8.79827 24.5935 9.45922 25.5671 10.4329C26.5408 11.4065 27.2017 12.6485 27.4654 14M22 3C24.8078 3.31192 27.4261 4.5693 29.425 6.56567C31.4239 8.56204 32.6845 11.1788 33 13.9862" stroke-width="3" stroke-linecap="round" stroke-linejoin="round"/></symbol><symbol viewBox="0 0 37 36" id="search" xmlns="http://www.w3.org/2000/svg"><path d="M16.7861 28.5C23.4136 28.5 28.7861 23.1274 28.7861 16.5C28.7861 9.87258 23.4136 4.5 16.7861 4.5C10.1587 4.5 4.78613 9.87258 4.78613 16.5C4.78613 23.1274 10.1587 28.5 16.7861 28.5Z" stroke-width="3" stroke-linecap="round" stroke-linejoin="round"/><path d="M31.7857 31.5L25.2607 24.975" stroke-width="3" stroke-linecap="round" stroke-linejoin="round"/></symbol><symbol viewBox="0 0 24 24" id="star" xmlns="http://www.w3.org/2000/svg"><path d="M11.1033 3.81663C11.4701 3.07346 12.5299 3.07346 12.8967 3.81663L14.8576 7.78909C15.0031 8.08394 15.2843 8.2884 15.6096 8.33595L19.9962 8.97712C20.8161 9.09696 21.1429 10.1048 20.5493 10.683L17.3768 13.773C17.1409 14.0027 17.0333 14.3339 17.0889 14.6584L17.8374 19.0226C17.9775 19.8396 17.12 20.4626 16.3864 20.0767L12.4655 18.0148C12.1741 17.8615 11.8259 17.8615 11.5345 18.0148L7.61363 20.0767C6.88 20.4626 6.02245 19.8396 6.16257 19.0226L6.91109 14.6584C6.96675 14.3339 6.85908 14.0027 6.62321 13.773L3.45068 10.683C2.85708 10.1048 3.18387 9.09696 4.00378 8.97712L8.39037 8.33595C8.71572 8.2884 8.99691 8.08394 9.14245 7.78909L11.1033 3.81663Z"/></symbol><symbol viewBox="0 0 28 28" id="telegram" xmlns="http://www.w3.org/2000/svg"><path d="M3.83306 12.598C0.855826 13.83 5.84354 15.1646 8.70955 15.6779L20.0025 8.6198C21.7478 7.69584 21.1575 8.49147 20.6441 9.00479L11.6611 17.0895L11.2761 22.2227C11.7894 22.6333 13.7999 20.5116 14.741 19.3994L18.9759 22.4793C20.9265 24.2246 21.5852 23.0354 21.6708 22.2227L24.879 6.95153C25.7003 4.48761 23.8524 4.81271 22.8257 5.28325L3.83306 12.598Z"/></symbol><symbol viewBox="0 0 8 10" id="triangle-menu" xmlns="http://www.w3.org/2000/svg"><path d="M7.5 5L-4.07833e-07 9.33013L-2.92811e-08 0.669872L7.5 5Z"/></symbol><symbol viewBox="0 0 36 36" id="visually-impaired" xmlns="http://www.w3.org/2000/svg"><path fill-rule="evenodd" clip-rule="evenodd" d="M18 6.00001C7.5 6.00001 1.5 18 1.5 18C1.5 18 7.5 30 18 30C28.5 30 34.5 18 34.5 18C34.5 18 28.5 6.00001 18 6.00001ZM15.0001 18C15.0001 16.3431 16.3432 15 18.0001 15C19.6569 15 21.0001 16.3431 21.0001 18C21.0001 19.6569 19.6569 21 18.0001 21C16.3432 21 15.0001 19.6569 15.0001 18ZM18.0001 12C14.6864 12 12.0001 14.6863 12.0001 18C12.0001 21.3137 14.6864 24 18.0001 24C21.3138 24 24.0001 21.3137 24.0001 18C24.0001 14.6863 21.3138 12 18.0001 12Z"/></symbol><symbol viewBox="0 0 28 28" id="wk" xmlns="http://www.w3.org/2000/svg"><path d="M0.220414 7.33074C0.578301 7.221 1.75087 7.25373 2.72563 7.33074C3.85905 7.4203 5.46943 7.65997 5.58873 7.82458C5.91972 8.31722 8.39807 12.444 9.16761 13.3379C9.94596 14.2421 10.9301 12.5149 10.9301 10.6218C10.9301 9.29017 9.79391 7.52279 9.16761 7.65997C9.31076 6.47475 11.9143 6.50648 13.8201 6.67229C14.978 6.77303 16.385 7.57766 16.3254 8.15381V13.0099C16.9696 15.7754 21.1568 10.9605 21.1568 8.48304C21.1568 8.15381 21.0405 7.33074 22.4095 7.33074H27.062C28.8245 8.15381 26.6743 10.8425 24.9147 12.763C22.9821 14.6067 23.9305 15.973 23.9305 15.973L27.062 19.0183C29.6388 21.5204 26.2298 21.4052 24.9147 21.4052C22.702 21.4052 21.4878 20.7455 18.0879 18.441C17.2569 17.8777 16.3552 18.7988 16.3254 20.2529C16.4685 21.5698 15.3143 21.4052 13.8201 21.4052C6.54602 20.7455 3.68292 17.8648 0.220414 8.89457C-0.00173199 8.31906 -0.137474 7.44049 0.220414 7.33074Z"/></symbol><symbol viewBox="0 0 17 17" id="youtube" xmlns="http://www.w3.org/2000/svg"><path fill-rule="evenodd" clip-rule="evenodd" d="M15.4691 3.6545C15.7104 3.90324 15.8818 4.21125 15.9659 4.54742C16.1906 5.79316 16.2997 7.05701 16.2917 8.32284C16.2962 9.56974 16.1872 10.8145 15.9659 12.0416C15.8818 12.3778 15.7104 12.6858 15.4691 12.9345C15.2278 13.1832 14.9252 13.3639 14.5917 13.4583C13.3734 13.7841 8.50008 13.7841 8.50008 13.7841C8.50008 13.7841 3.62675 13.7841 2.40841 13.4583C2.08174 13.3689 1.78365 13.1967 1.54293 12.9585C1.30221 12.7203 1.12701 12.424 1.03425 12.0983C0.80954 10.8525 0.700465 9.58866 0.708413 8.32284C0.702205 7.06647 0.811273 5.81219 1.03425 4.57575C1.11839 4.23958 1.28975 3.93157 1.53103 3.68283C1.77231 3.43409 2.07496 3.25342 2.40841 3.15909C3.62675 2.83325 8.50008 2.83325 8.50008 2.83325C8.50008 2.83325 13.3734 2.83325 14.5917 3.13075C14.9252 3.22509 15.2278 3.40576 15.4691 3.6545ZM10.9797 8.32287L6.90674 10.6391V6.00662L10.9797 8.32287Z"/></symbol></svg>