<?xml version="1.0" encoding="utf-8"?><svg viewBox="0 0 37 36" xmlns="http://www.w3.org/2000/svg" xmlns:xlink="http://www.w3.org/1999/xlink"><style>:root>svg{display:none}:root>svg:target{display:block}</style><svg fill="none" viewBox="0 0 28 28" id="administration" xmlns="http://www.w3.org/2000/svg"><path d="M4.667 19.833A1.17 1.17 0 0 0 3.5 21a1.17 1.17 0 0 0 1.167 1.167h18.666A1.17 1.17 0 0 0 24.5 21a1.17 1.17 0 0 0-1.167-1.167h-1.166v-5.891a2.917 2.917 0 0 0 2.333-2.859v-2.87c0-1.213-.758-2.31-1.878-2.73L15.027 2.52a2.993 2.993 0 0 0-2.065 0L5.39 5.483a2.918 2.918 0 0 0-1.89 2.73v2.87a2.917 2.917 0 0 0 2.333 2.859v5.891H4.667ZM15.167 14v5.833h-2.334V14h2.334Zm2.333 5.833V14h2.333v5.833H17.5ZM14 6.382c.968 0 1.75.781 1.75 1.75 0 .968-.782 1.75-1.75 1.75s-1.75-.782-1.75-1.75c0-.969.782-1.75 1.75-1.75ZM8.167 14H10.5v5.833H8.167V14ZM24.5 23.333h-21A1.17 1.17 0 0 0 2.333 24.5 1.17 1.17 0 0 0 3.5 25.667h21a1.17 1.17 0 0 0 1.166-1.167 1.17 1.17 0 0 0-1.166-1.167Z" fill="#A0ABBF"/></svg><svg fill="none" viewBox="0 0 8 13" id="arrow" xmlns="http://www.w3.org/2000/svg"><path d="m1.4 12.1 5.678-5.704L1.399.692" stroke="#006FEE" stroke-width="1.4" stroke-linecap="round" stroke-linejoin="round"/></svg><svg fill="none" viewBox="0 0 25 25" id="arrow-menu-nav" xmlns="http://www.w3.org/2000/svg"><path d="m7.552 10.527 5.023 5 5.022-5" stroke="#fff" stroke-width="2" stroke-linecap="round" stroke-linejoin="round"/></svg><svg fill="none" viewBox="0 0 19 20" id="arrow-right" xmlns="http://www.w3.org/2000/svg"><path d="M3.958 10h11.083M9.5 4.458 15.042 10 9.5 15.542" stroke="#2C2733" stroke-width="1.583" stroke-linecap="round" stroke-linejoin="round"/></svg><svg fill="none" viewBox="0 0 36 22" id="burger-menu" xmlns="http://www.w3.org/2000/svg"><path stroke="#fff" stroke-width="3.6" stroke-linecap="round" d="M1.8 2.2h32.4M1.8 11.2h26.4M1.8 20.2h32.4"/></svg><svg fill="none" viewBox="0 0 28 28" id="docs" xmlns="http://www.w3.org/2000/svg"><path d="M23.917 11.888h-3.372a5.024 5.024 0 0 1-5.016-5.016V3.5a1.17 1.17 0 0 0-1.167-1.167H9.415c-3.593 0-6.498 2.334-6.498 6.499v10.336c0 4.165 2.905 6.499 6.498 6.499h9.17c3.594 0 6.499-2.334 6.499-6.499v-6.113a1.17 1.17 0 0 0-1.167-1.167Z" fill="#A0ABBF"/><path d="M18.434 2.578c-.479-.478-1.307-.151-1.307.514v4.071c0 1.704 1.447 3.115 3.208 3.115 1.109.012 2.649.012 3.967.012.665 0 1.015-.782.548-1.248-1.68-1.692-4.69-4.737-6.416-6.464Z" fill="#A0ABBF"/></svg><svg fill="none" viewBox="0 0 28 28" id="education" xmlns="http://www.w3.org/2000/svg"><path fill-rule="evenodd" clip-rule="evenodd" d="M26.453 12.497a1.322 1.322 0 0 0-.025-2.43L15.096 4.905a2.645 2.645 0 0 0-2.195 0l-11.33 5.157a1.322 1.322 0 0 0 0 2.422L12.9 17.65a2.645 2.645 0 0 0 2.195 0l9.143-4.15v5.71a.778.778 0 1 0 1.555 0v-6.415l.66-.299Zm-13.552 6.476-6.727-3.067h-.109v4.627c0 1.052.836 2.06 2.324 2.805 1.488.744 3.505 1.162 5.61 1.162 2.103 0 4.121-.418 5.609-1.162 1.488-.744 2.323-1.753 2.323-2.805v-4.628h-.076l-6.76 3.068a2.644 2.644 0 0 1-2.194 0Z" fill="#A0ABBF"/></svg><svg fill="none" viewBox="0 0 21 21" id="filter" xmlns="http://www.w3.org/2000/svg"><path d="M14.77 8.75a4.16 4.16 0 0 0-4.157 4.156 4.1 4.1 0 0 0 .604 2.144 4.12 4.12 0 0 0 3.553 2.012 4.139 4.139 0 0 0 3.552-2.012 4.077 4.077 0 0 0 .604-2.144A4.154 4.154 0 0 0 14.77 8.75Zm1.557 4.795h-.901v.936a.661.661 0 0 1-.656.656.661.661 0 0 1-.657-.656v-.936h-.892a.661.661 0 0 1-.656-.656c0-.359.297-.656.656-.656h.892v-.858a.66.66 0 0 1 .657-.656c.358 0 .656.297.656.656v.857h.901c.359 0 .656.298.656.657a.661.661 0 0 1-.656.656Z" fill="#006FEE"/><path d="M18.007 3.518V5.46c0 .709-.437 1.593-.875 2.039l-.157.14a.469.469 0 0 1-.464.087 5.898 5.898 0 0 0-.525-.149 5.032 5.032 0 0 0-1.216-.14 5.47 5.47 0 0 0-5.47 5.47c0 .997.272 1.977.788 2.817a5.243 5.243 0 0 0 1.715 1.759c.202.13.28.41.105.568a2.541 2.541 0 0 1-.183.14l-1.225.797c-1.138.708-2.704-.088-2.704-1.505V12.8c0-.621-.35-1.417-.7-1.855L3.78 7.411c-.438-.446-.788-1.242-.788-1.767V3.605c0-1.059.788-1.855 1.741-1.855h11.533c.954 0 1.741.796 1.741 1.768Z" fill="#006FEE"/></svg><svg fill="none" viewBox="0 0 28 28" id="home-ico" xmlns="http://www.w3.org/2000/svg"><path d="M15.166 17.185h-2.333a1.17 1.17 0 0 0-1.167 1.167v7h4.667v-7a1.17 1.17 0 0 0-1.167-1.167Z" fill="#006FEE"/><path d="m24.313 9.73-8.167-6.347a3.47 3.47 0 0 0-4.293 0L3.686 9.73a3.487 3.487 0 0 0-1.353 2.765v9.357a3.51 3.51 0 0 0 3.5 3.5h3.5v-7a3.51 3.51 0 0 1 3.5-3.5h2.333a3.51 3.51 0 0 1 3.5 3.5v7h3.5a3.51 3.51 0 0 0 3.5-3.5v-9.357c0-1.085-.49-2.088-1.353-2.765Z" fill="#006FEE"/></svg><svg fill="none" viewBox="0 0 28 28" id="intelligence-ico" xmlns="http://www.w3.org/2000/svg"><path d="m24.383 11.492.689 11.538a.833.833 0 0 1-.21.618.81.81 0 0 1-.619.269h-3.185l2.52-12.425h.805ZM25.667 7l-.012.023c.023.28 0 .572-.07.864l-8.598 15.785a2.599 2.599 0 0 1-2.544 1.995h9.8a2.578 2.578 0 0 0 2.579-2.777L25.667 7ZM13.359 2.613a.882.882 0 0 0-.642-1.061.891.891 0 0 0-1.061.641l-.584 2.415h1.797l.49-1.995ZM21.058 2.578a.87.87 0 0 0-.676-1.038.875.875 0 0 0-1.039.677l-.525 2.415h1.797l.443-2.054Z" fill="#006FEE"/><path d="M25.456 6.218A2.582 2.582 0 0 0 23.04 4.62h-2.427l-.653 3.022a.882.882 0 0 1-.852.688c-.058 0-.128 0-.187-.023a.893.893 0 0 1-.676-1.039l.571-2.66h-5.95l-.735 3.034a.873.873 0 0 1-.851.665c-.07 0-.14-.012-.21-.024a.876.876 0 0 1-.642-1.061l.63-2.625H8.691A2.615 2.615 0 0 0 6.194 6.44L1.282 22.248c-.513 1.692.735 3.419 2.497 3.419h15.33a2.599 2.599 0 0 0 2.543-1.995l3.932-15.785c.07-.292.093-.584.07-.864a2.334 2.334 0 0 0-.198-.805Zm-8.307 13.324H7.816a.881.881 0 0 1-.875-.875c0-.479.396-.875.875-.875h9.333c.478 0 .875.396.875.875a.881.881 0 0 1-.875.875Zm1.167-4.667H8.982A.881.881 0 0 1 8.107 14c0-.478.397-.875.875-.875h9.334c.478 0 .875.397.875.875a.881.881 0 0 1-.875.875Z" fill="#006FEE"/></svg><svg fill="none" viewBox="0 0 36 36" id="mail" xmlns="http://www.w3.org/2000/svg"><path d="M9.775 6.336a100.802 100.802 0 0 1 16.45 0l2.636.216c1.756.144 3.259 1.13 4.038 2.54.1.181.025.4-.159.507L21.8 15.978a7.813 7.813 0 0 1-7.68.074L3.107 9.922c-.178-.099-.26-.302-.18-.482.714-1.594 2.316-2.733 4.212-2.888l2.636-.216Z" fill="#A0ABBF"/><path d="M2.919 12.683c-.272-.152-.62.011-.651.308a47.047 47.047 0 0 0 .321 12.431c.347 2.171 2.228 3.836 4.55 4.026l2.636.216c5.473.448 10.977.448 16.45 0l2.636-.216c2.322-.19 4.203-1.855 4.55-4.026.676-4.238.77-8.537.281-12.793-.034-.298-.387-.458-.658-.3l-9.855 5.746c-3.174 1.851-7.177 1.89-10.391.101l-9.869-5.493Z" fill="#A0ABBF"/></svg><svg fill="none" viewBox="0 0 36 36" id="phone-call" xmlns="http://www.w3.org/2000/svg"><path d="M32 28.28v-4.065a2.707 2.707 0 0 0-.644-1.82 2.717 2.717 0 0 0-1.692-.93 17.456 17.456 0 0 1-3.815-.95 2.72 2.72 0 0 0-2.864.61l-1.724 1.721a21.7 21.7 0 0 1-8.145-8.129l1.724-1.72a2.708 2.708 0 0 0 .61-2.86 17.37 17.37 0 0 1-.95-3.807A2.708 2.708 0 0 0 11.785 4H7.713a2.72 2.72 0 0 0-2.571 1.845c-.12.356-.165.734-.131 1.109A26.779 26.779 0 0 0 9.179 18.7a26.446 26.446 0 0 0 8.145 8.13 26.9 26.9 0 0 0 11.716 4.159 2.72 2.72 0 0 0 2.732-1.613c.151-.346.229-.72.227-1.097Z" fill="#A0ABBF"/><path d="M22 8.535A6.918 6.918 0 0 1 27.465 14M22 3a12.453 12.453 0 0 1 11 10.986" stroke="#A0ABBF" stroke-width="3" stroke-linecap="round" stroke-linejoin="round"/></svg><svg fill="none" viewBox="0 0 37 36" id="search" xmlns="http://www.w3.org/2000/svg"><path d="M16.786 28.5c6.628 0 12-5.373 12-12s-5.372-12-12-12c-6.627 0-12 5.373-12 12s5.373 12 12 12ZM31.786 31.5l-6.525-6.525" stroke="#A0ABBF" stroke-width="3" stroke-linecap="round" stroke-linejoin="round"/></svg><svg fill="none" viewBox="0 0 24 24" id="star" xmlns="http://www.w3.org/2000/svg"><path d="M11.103 3.817a1 1 0 0 1 1.794 0l1.96 3.972a1 1 0 0 0 .753.547l4.386.641a1 1 0 0 1 .553 1.706l-3.172 3.09a1 1 0 0 0-.288.885l.748 4.365a1 1 0 0 1-1.45 1.054l-3.921-2.062a1 1 0 0 0-.931 0l-3.921 2.062a1 1 0 0 1-1.451-1.054l.748-4.365a1 1 0 0 0-.288-.885l-3.172-3.09a1 1 0 0 1 .553-1.706l4.386-.641a1 1 0 0 0 .752-.547l1.961-3.972Z" fill="#fff"/></svg><svg fill="none" viewBox="0 0 28 28" id="telegram" xmlns="http://www.w3.org/2000/svg"><path d="M3.833 12.598c-2.977 1.232 2.01 2.567 4.877 3.08L20.003 8.62c1.745-.924 1.154-.129.641.385l-8.983 8.085-.385 5.133c.513.41 2.524-1.711 3.465-2.824l4.235 3.08c1.95 1.746 2.61.556 2.695-.256l3.208-15.271c.821-2.464-1.027-2.14-2.053-1.669L3.833 12.598Z" fill="#A0ABBF"/></svg><svg fill="none" viewBox="0 0 8 10" id="triangle-menu" xmlns="http://www.w3.org/2000/svg"><path d="M7.5 5 0 9.33V.67L7.5 5Z" fill="#006FEE"/></svg><svg fill="none" viewBox="0 0 36 36" id="visually-impaired" xmlns="http://www.w3.org/2000/svg"><path fill-rule="evenodd" clip-rule="evenodd" d="M18 6C7.5 6 1.5 18 1.5 18s6 12 16.5 12 16.5-12 16.5-12S28.5 6 18 6Zm-3 12a3 3 0 1 1 6 0 3 3 0 0 1-6 0Zm3-6a6 6 0 1 0 0 12 6 6 0 0 0 0-12Z" fill="#A0ABBF"/></svg><svg fill="none" viewBox="0 0 28 28" id="wk" xmlns="http://www.w3.org/2000/svg"><path d="M.22 7.33c.358-.109 1.53-.076 2.506 0 1.133.09 2.743.33 2.863.495.33.492 2.81 4.619 3.579 5.513.778.904 1.762-.823 1.762-2.716 0-1.332-1.136-3.1-1.762-2.962.143-1.185 2.746-1.154 4.652-.988 1.158.101 2.565.906 2.505 1.482v4.856c.645 2.765 4.832-2.05 4.832-4.527 0-.33-.116-1.152 1.253-1.152h4.652c1.762.823-.388 3.511-2.147 5.432-1.933 1.844-.985 3.21-.985 3.21l3.132 3.045c2.577 2.502-.832 2.387-2.147 2.387-2.213 0-3.427-.66-6.827-2.964-.831-.563-1.733.358-1.763 1.812.143 1.317-1.01 1.152-2.505 1.152-7.274-.66-10.137-3.54-13.6-12.51-.222-.576-.357-1.455 0-1.564Z" fill="#A0ABBF"/></svg><svg fill="none" viewBox="0 0 17 17" id="youtube" xmlns="http://www.w3.org/2000/svg"><path fill-rule="evenodd" clip-rule="evenodd" d="M15.47 3.655c.24.248.412.556.496.892.225 1.246.334 2.51.326 3.776a20.536 20.536 0 0 1-.326 3.719 1.968 1.968 0 0 1-1.374 1.416c-1.219.326-6.092.326-6.092.326s-4.873 0-6.092-.326a1.97 1.97 0 0 1-1.374-1.36 20.542 20.542 0 0 1-.326-3.775c-.006-1.257.103-2.51.326-3.747a1.97 1.97 0 0 1 1.374-1.417C3.627 2.833 8.5 2.833 8.5 2.833s4.873 0 6.092.298c.333.094.636.275.877.524Zm-4.49 4.668-4.073 2.316V6.007l4.073 2.316Z" fill="#CBC9D3"/></svg></svg>